<svg xmlns="http://www.w3.org/2000/svg" width="128" height="128" viewBox="0 0 128 128" role="img" aria-label="Go$ // h — Hamlyn">
<rect width="128" height="128" rx="30" fill="#0e1512"></rect>
<rect x="3" y="3" width="122" height="122" rx="27" fill="none" stroke="#213c34" stroke-width="3"></rect>
<path d="M25.524 70.744L25.524 70.744Q22.212 70.744 19.521 69.249Q16.830 67.754 15.243 64.879Q13.656 62.004 13.656 57.864L13.656 57.864L13.656 50.136Q13.656 43.926 17.152 40.591Q20.648 37.256 26.628 37.256L26.628 37.256Q32.562 37.256 35.805 40.407Q39.048 43.558 39.048 48.940L39.048 48.940L39.048 49.124L33.068 49.124L33.068 48.756Q33.068 47.054 32.355 45.674Q31.642 44.294 30.216 43.489Q28.790 42.684 26.628 42.684L26.628 42.684Q23.408 42.684 21.568 44.662Q19.728 46.640 19.728 50.044L19.728 50.044L19.728 57.956Q19.728 61.314 21.568 63.361Q23.408 65.408 26.720 65.408L26.720 65.408Q30.032 65.408 31.550 63.660Q33.068 61.912 33.068 59.244L33.068 59.244L33.068 58.784L25.432 58.784L25.432 53.632L39.048 53.632L39.048 70.100L33.436 70.100L33.436 67.018L32.608 67.018Q32.286 67.800 31.573 68.674Q30.860 69.548 29.434 70.146Q28.008 70.744 25.524 70.744ZM54.384 70.744L54.384 70.744Q50.980 70.744 48.266 69.364Q45.552 67.984 43.988 65.362Q42.424 62.740 42.424 59.060L42.424 59.060L42.424 58.324Q42.424 54.644 43.988 52.022Q45.552 49.400 48.266 48.020Q50.980 46.640 54.384 46.640L54.384 46.640Q57.788 46.640 60.502 48.020Q63.216 49.400 64.780 52.022Q66.344 54.644 66.344 58.324L66.344 58.324L66.344 59.060Q66.344 62.740 64.780 65.362Q63.216 67.984 60.502 69.364Q57.788 70.744 54.384 70.744ZM54.384 65.592L54.384 65.592Q57.052 65.592 58.800 63.867Q60.548 62.142 60.548 58.922L60.548 58.922L60.548 58.462Q60.548 55.242 58.823 53.517Q57.098 51.792 54.384 51.792L54.384 51.792Q51.716 51.792 49.968 53.517Q48.220 55.242 48.220 58.462L48.220 58.462L48.220 58.922Q48.220 62.142 49.968 63.867Q51.716 65.592 54.384 65.592Z" fill="#eafff6"></path>
<rect x="72" y="30" width="42" height="46" rx="13" fill="#00ACD7"></rect>
<path d="M95.176 68.844L91.096 68.844L91.096 65.206Q89.600 65.002 88.308 64.390L88.308 64.390Q86.200 63.404 85.010 61.568Q83.820 59.732 83.820 57.148L83.820 57.148L83.820 56.196L88.240 56.196L88.240 57.148Q88.240 59.290 89.566 60.344L89.566 60.344Q90.212 60.888 91.096 61.160L91.096 61.160L91.096 54.394Q89.362 53.918 88.070 53.272L88.070 53.272Q86.302 52.456 85.367 51.096Q84.432 49.736 84.432 47.560Q84.432 45.384 85.469 43.837Q86.506 42.290 88.410 41.440L88.410 41.440Q89.600 40.930 91.096 40.726L91.096 40.726L91.096 37.156L95.176 37.156L95.176 40.828Q96.332 41.032 97.386 41.474L97.386 41.474Q99.358 42.358 100.497 44.075Q101.636 45.792 101.636 48.376L101.636 48.376L101.636 49.396L97.216 49.396L97.216 48.376Q97.216 47.016 96.689 46.183Q96.162 45.350 95.176 44.942L95.176 44.942L95.176 51.164Q96.876 51.606 98.236 52.218L98.236 52.218Q100.106 53.068 101.143 54.462Q102.180 55.856 102.180 58.032Q102.180 60.208 101.075 61.857Q99.970 63.506 97.964 64.424L97.964 64.424Q96.706 65.002 95.176 65.240L95.176 65.240L95.176 68.844ZM95.176 55.414L95.176 61.194Q96.060 60.990 96.638 60.514L96.638 60.514Q97.760 59.596 97.760 58.168L97.760 58.168Q97.760 57.182 97.216 56.570Q96.672 55.958 95.618 55.550L95.618 55.550Q95.414 55.482 95.176 55.414L95.176 55.414ZM91.096 50.110L91.096 50.110L91.096 44.738Q90.314 44.942 89.838 45.316L89.838 45.316Q88.852 46.098 88.852 47.424L88.852 47.424Q88.852 48.308 89.311 48.920Q89.770 49.532 90.688 49.940L90.688 49.940Q90.892 50.042 91.096 50.110Z" fill="#04303b"></path>
<path d="M47.380 105.050L45.565 105.050L50.830 90.950L52.645 90.950L47.380 105.050ZM57.380 105.050L55.565 105.050L60.830 90.950L62.645 90.950L57.380 105.050ZM77.560 103.400L75.805 103.400L75.805 92.450L77.560 92.450L77.560 95.150L77.530 96.725L77.560 96.725Q77.650 96.005 78.130 95.555L78.130 95.555Q78.715 95 79.735 95L79.735 95Q80.965 95 81.700 95.795Q82.435 96.590 82.435 97.955L82.435 97.955L82.435 103.400L80.680 103.400L80.680 98.135Q80.680 97.355 80.268 96.928Q79.855 96.500 79.135 96.500L79.135 96.500Q78.400 96.500 77.980 96.950Q77.560 97.400 77.560 98.210L77.560 98.210L77.560 103.400Z" fill="#6fb0a2"></path>
</svg>